# xmcd
# Track frame offsets:
# 150
# 19409
# 37835
# 58568
# 77129
# 97507
# 117319
# 136160
# 156722
#
# Disc length: 2327 seconds
# Revision: 0
# Processed by: cddbd v1.4PL0 Copyright (c) Steve Scherf et al.
# Submitted via: VisiTrax 2.9.5.181 - For more info visit www.synapsa.com
#
DISCID=6a091509
DTITLE=Arthur Foy - I Like Kissing On You
DYEAR=2003
DGENRE=
TTITLE0=Don't Jingle Your Bells Before You Ring Her Bells
TTITLE1=Don't Stop My Party
TTITLE2=I Like Kissing On You
TTITLE3=Can I Get That
TTITLE4=Rock Some Butt
TTITLE5=Love Storm
TTITLE6=Ride My Horse
TTITLE7=Let Me Sing The Blues
TTITLE8=Can I Get That
EXTD=
EXTT0=
EXTT1=
EXTT2=
EXTT3=
EXTT4=
EXTT5=
EXTT6=
EXTT7=
EXTT8=
PLAYORDER=
